<?xml version="1.0" encoding="UTF-8"?>
<svg id="Layer_1" data-name="Layer 1" xmlns="http://www.w3.org/2000/svg" viewBox="0 0 1080 1080">
  <path d="M590,540c0,27.61-22.39,50-50,50s-50-22.39-50-50,22.39-50,50-50,50,22.39,50,50ZM590.5,540c0-27.85-22.65-50.5-50.5-50.5s-50.5,22.65-50.5,50.5,22.65,50.5,50.5,50.5,50.5-22.65,50.5-50.5ZM589.5,540c0,27.29-22.21,49.5-49.5,49.5s-49.5-22.21-49.5-49.5,22.21-49.5,49.5-49.5,49.5,22.21,49.5,49.5ZM471.6,140v300M476.6,140h-10v300h10V140ZM600.68,140v300M605.68,140h-10v300h10V140ZM540,677v300M545,677h-10v300h10v-300Z"/>
</svg>